<svg width="607" height="171" viewBox="0 0 607 171" fill="none" xmlns="http://www.w3.org/2000/svg">
<g clip-path="url(#clip0_326_690)">
<path d="M86.7 136.1C89.6333 136.1 91.8667 137.233 93.4 139.5C94.9667 141.733 95.75 144.6 95.75 148.1C95.75 151.6 94.6833 154.367 92.55 156.4C90.45 158.4 87.8167 159.4 84.65 159.4C83.1167 159.4 81.5167 159.25 79.85 158.95V167.7L83.8 169.3L83.5 170.4H72.3L72 169.3L74.25 168.35C74.85 168.117 75.25 167.867 75.45 167.6C75.6833 167.333 75.8 166.95 75.8 166.45V140.1L72.3 139.55L72 138.45L78.45 136.1L79.45 136.5L79.55 137.9L79.75 138C82.0167 136.733 84.3333 136.1 86.7 136.1ZM79.85 155.5C81.1833 155.967 82.8167 156.2 84.75 156.2C86.7167 156.2 88.35 155.95 89.65 155.45C90.8833 153.817 91.5 151.433 91.5 148.3C91.5 142.467 89.3 139.55 84.9 139.55C83.2667 139.55 81.5833 139.767 79.85 140.2V155.5ZM115.518 159.4C110.718 159.4 108.318 156.85 108.318 151.75V140.1L104.818 139.55L104.518 138.45L111.368 136.1L112.368 136.5V151.15C112.368 152.85 112.752 154.083 113.518 154.85C114.318 155.583 115.585 155.95 117.318 155.95C119.052 155.95 120.785 155.733 122.518 155.3V140.1L119.018 139.55L118.718 138.45L125.568 136.1L126.568 136.5V156.3L130.018 157.5L129.718 158.6L125.468 159.4L124.468 159L122.868 157.6L122.618 157.5C120.318 158.767 117.952 159.4 115.518 159.4ZM151.977 139.4C151.111 139.4 150.077 139.533 148.877 139.8C147.711 140.033 146.894 140.25 146.427 140.45V156.3L150.877 157.9L150.577 159H138.877L138.577 157.9L140.827 156.95C141.427 156.717 141.827 156.467 142.027 156.2C142.261 155.933 142.377 155.55 142.377 155.05V140.1L138.877 139.55L138.577 138.45L145.027 136.1L146.027 136.5L146.227 138.35L146.427 138.45C146.894 138.083 147.844 137.633 149.277 137.1C150.744 136.533 151.827 136.2 152.527 136.1C153.227 136.3 153.977 136.733 154.777 137.4C155.577 138.033 156.127 138.633 156.427 139.2L153.177 143.55L151.977 143.2V139.4ZM164.869 147.75C164.869 144.083 165.919 141.233 168.019 139.2C170.119 137.133 172.569 136.1 175.369 136.1C178.169 136.1 180.286 136.933 181.719 138.6C183.152 140.233 183.869 142.483 183.869 145.35V147L183.119 147.75H169.119C169.186 150.317 169.902 152.367 171.269 153.9C172.636 155.433 174.386 156.2 176.519 156.2C178.686 156.2 180.752 155.767 182.719 154.9L183.419 156.2C183.019 156.6 182.536 157.017 181.969 157.45C181.402 157.85 180.486 158.283 179.219 158.75C177.986 159.183 176.686 159.4 175.319 159.4C172.219 159.4 169.702 158.383 167.769 156.35C165.836 154.283 164.869 151.417 164.869 147.75ZM174.819 139.3C173.252 139.3 171.969 139.55 170.969 140.05C170.569 140.55 170.169 141.35 169.769 142.45C169.402 143.55 169.202 144.6 169.169 145.6L179.869 145.3C179.869 141.3 178.186 139.3 174.819 139.3ZM223.059 139.3C222.293 138.967 221.109 138.8 219.509 138.8C217.943 138.8 216.759 139.2 215.959 140C215.659 140.467 215.509 141.017 215.509 141.65C215.509 143.05 216.359 144.067 218.059 144.7L223.159 146.5C224.593 147 225.743 147.817 226.609 148.95C227.476 150.05 227.909 151.35 227.909 152.85C227.909 154.95 227.109 156.567 225.509 157.7C223.909 158.833 222.026 159.4 219.859 159.4C217.726 159.4 215.926 159.05 214.459 158.35C213.026 157.617 211.976 156.85 211.309 156.05L213.859 151.9L215.109 152.25L215.309 155.6C216.476 156.267 217.959 156.6 219.759 156.6C222.793 156.6 224.309 155.567 224.309 153.5C224.309 152.667 224.043 152 223.509 151.5C222.976 151 222.109 150.55 220.909 150.15L216.309 148.65C214.943 148.183 213.893 147.417 213.159 146.35C212.426 145.283 212.059 144.083 212.059 142.75C212.059 140.65 212.893 139.017 214.559 137.85C216.226 136.683 218.159 136.1 220.359 136.1C221.693 136.1 222.943 136.367 224.109 136.9C225.743 137.6 226.843 138.383 227.409 139.25L224.659 143.15L223.459 142.8L223.059 139.3ZM247.628 159.4C242.828 159.4 240.428 156.85 240.428 151.75V140.1L236.928 139.55L236.628 138.45L243.478 136.1L244.478 136.5V151.15C244.478 152.85 244.861 154.083 245.628 154.85C246.428 155.583 247.694 155.95 249.428 155.95C251.161 155.95 252.894 155.733 254.628 155.3V140.1L251.128 139.55L250.828 138.45L257.678 136.1L258.678 136.5V156.3L262.128 157.5L261.828 158.6L257.578 159.4L256.578 159L254.978 157.6L254.728 157.5C252.428 158.767 250.061 159.4 247.628 159.4ZM284.837 136.1C287.77 136.1 290.003 137.233 291.537 139.5C293.103 141.733 293.887 144.6 293.887 148.1C293.887 151.6 292.82 154.367 290.687 156.4C288.587 158.4 285.953 159.4 282.787 159.4C281.253 159.4 279.653 159.25 277.987 158.95V167.7L281.937 169.3L281.637 170.4H270.437L270.137 169.3L272.387 168.35C272.987 168.117 273.387 167.867 273.587 167.6C273.82 167.333 273.937 166.95 273.937 166.45V140.1L270.437 139.55L270.137 138.45L276.587 136.1L277.587 136.5L277.687 137.9L277.887 138C280.153 136.733 282.47 136.1 284.837 136.1ZM277.987 155.5C279.32 155.967 280.953 156.2 282.887 156.2C284.853 156.2 286.487 155.95 287.787 155.45C289.02 153.817 289.637 151.433 289.637 148.3C289.637 142.467 287.437 139.55 283.037 139.55C281.403 139.55 279.72 139.767 277.987 140.2V155.5ZM317.655 136.1C320.588 136.1 322.822 137.233 324.355 139.5C325.922 141.733 326.705 144.6 326.705 148.1C326.705 151.6 325.638 154.367 323.505 156.4C321.405 158.4 318.772 159.4 315.605 159.4C314.072 159.4 312.472 159.25 310.805 158.95V167.7L314.755 169.3L314.455 170.4H303.255L302.955 169.3L305.205 168.35C305.805 168.117 306.205 167.867 306.405 167.6C306.638 167.333 306.755 166.95 306.755 166.45V140.1L303.255 139.55L302.955 138.45L309.405 136.1L310.405 136.5L310.505 137.9L310.705 138C312.972 136.733 315.288 136.1 317.655 136.1ZM310.805 155.5C312.138 155.967 313.772 156.2 315.705 156.2C317.672 156.2 319.305 155.95 320.605 155.45C321.838 153.817 322.455 151.433 322.455 148.3C322.455 142.467 320.255 139.55 315.855 139.55C314.222 139.55 312.538 139.767 310.805 140.2V155.5ZM339.428 155.05V128.6L335.928 128.05L335.628 126.95L342.478 124.6L343.478 125V156.3L347.428 157.9L347.128 159H335.928L335.628 157.9L337.878 156.95C338.478 156.717 338.878 156.467 339.078 156.2C339.311 155.933 339.428 155.55 339.428 155.05ZM356.17 147.75C356.17 144.083 357.22 141.233 359.32 139.2C361.42 137.133 363.87 136.1 366.67 136.1C369.47 136.1 371.587 136.933 373.02 138.6C374.453 140.233 375.17 142.483 375.17 145.35V147L374.42 147.75H360.42C360.487 150.317 361.203 152.367 362.57 153.9C363.937 155.433 365.687 156.2 367.82 156.2C369.987 156.2 372.053 155.767 374.02 154.9L374.72 156.2C374.32 156.6 373.837 157.017 373.27 157.45C372.703 157.85 371.787 158.283 370.52 158.75C369.287 159.183 367.987 159.4 366.62 159.4C363.52 159.4 361.003 158.383 359.07 156.35C357.137 154.283 356.17 151.417 356.17 147.75ZM366.12 139.3C364.553 139.3 363.27 139.55 362.27 140.05C361.87 140.55 361.47 141.35 361.07 142.45C360.703 143.55 360.503 144.6 360.47 145.6L371.17 145.3C371.17 141.3 369.487 139.3 366.12 139.3ZM416.924 144.35C416.924 142.65 416.524 141.433 415.724 140.7C414.957 139.933 413.69 139.55 411.924 139.55C410.157 139.55 408.274 139.817 406.274 140.35C406.607 141.45 406.774 142.583 406.774 143.75V156.3L410.724 157.9L410.424 159H399.224L398.924 157.9L401.174 156.95C401.774 156.717 402.174 156.467 402.374 156.2C402.607 155.933 402.724 155.55 402.724 155.05V144.35C402.724 142.65 402.324 141.433 401.524 140.7C400.757 139.933 399.507 139.55 397.774 139.55C396.04 139.55 394.307 139.767 392.574 140.2V156.3L396.524 157.9L396.224 159H385.024L384.724 157.9L386.974 156.95C387.574 156.717 387.974 156.467 388.174 156.2C388.407 155.933 388.524 155.55 388.524 155.05V140.1L385.024 139.55L384.724 138.45L391.174 136.1L392.174 136.5L392.274 137.9L392.474 138C394.774 136.733 397.174 136.1 399.674 136.1C402.174 136.1 404.024 136.85 405.224 138.35C408.157 136.85 410.94 136.1 413.574 136.1C418.507 136.1 420.974 138.65 420.974 143.75V156.3L424.924 157.9L424.624 159H413.424L413.124 157.9L415.374 156.95C415.974 156.717 416.374 156.467 416.574 156.2C416.807 155.933 416.924 155.55 416.924 155.05V144.35ZM433.477 147.75C433.477 144.083 434.527 141.233 436.627 139.2C438.727 137.133 441.177 136.1 443.977 136.1C446.777 136.1 448.893 136.933 450.327 138.6C451.76 140.233 452.477 142.483 452.477 145.35V147L451.727 147.75H437.727C437.793 150.317 438.51 152.367 439.877 153.9C441.243 155.433 442.993 156.2 445.127 156.2C447.293 156.2 449.36 155.767 451.327 154.9L452.027 156.2C451.627 156.6 451.143 157.017 450.577 157.45C450.01 157.85 449.093 158.283 447.827 158.75C446.593 159.183 445.293 159.4 443.927 159.4C440.827 159.4 438.31 158.383 436.377 156.35C434.443 154.283 433.477 151.417 433.477 147.75ZM443.427 139.3C441.86 139.3 440.577 139.55 439.577 140.05C439.177 140.55 438.777 141.35 438.377 142.45C438.01 143.55 437.81 144.6 437.777 145.6L448.477 145.3C448.477 141.3 446.793 139.3 443.427 139.3ZM480.03 144.35C480.03 142.65 479.63 141.433 478.83 140.7C478.064 139.933 476.814 139.55 475.08 139.55C473.347 139.55 471.614 139.767 469.88 140.2V156.3L473.83 157.9L473.53 159H462.33L462.03 157.9L464.28 156.95C464.88 156.717 465.28 156.467 465.48 156.2C465.714 155.933 465.83 155.55 465.83 155.05V140.1L462.33 139.55L462.03 138.45L468.48 136.1L469.48 136.5L469.58 137.9L469.78 138C472.08 136.733 474.447 136.1 476.88 136.1C481.68 136.1 484.08 138.65 484.08 143.75V156.3L488.03 157.9L487.73 159H476.53L476.23 157.9L478.48 156.95C479.08 156.717 479.48 156.467 479.68 156.2C479.914 155.933 480.03 155.55 480.03 155.05V144.35ZM498.974 154.55V138.9H495.474L495.174 137.8L498.974 136.1L501.174 131.45L503.024 131.8V136.5H508.974L509.524 137.1L509.024 139L503.024 138.8V153.4C503.024 154.633 503.274 155.55 503.774 156.15C504.274 156.717 505.158 157 506.424 157H509.274L509.524 158.4C507.424 159.067 505.574 159.4 503.974 159.4C502.374 159.4 501.141 158.95 500.274 158.05C499.408 157.15 498.974 155.983 498.974 154.55ZM529.759 139.3C528.992 138.967 527.809 138.8 526.209 138.8C524.642 138.8 523.459 139.2 522.659 140C522.359 140.467 522.209 141.017 522.209 141.65C522.209 143.05 523.059 144.067 524.759 144.7L529.859 146.5C531.292 147 532.442 147.817 533.309 148.95C534.175 150.05 534.609 151.35 534.609 152.85C534.609 154.95 533.809 156.567 532.209 157.7C530.609 158.833 528.725 159.4 526.559 159.4C524.425 159.4 522.625 159.05 521.159 158.35C519.725 157.617 518.675 156.85 518.009 156.05L520.559 151.9L521.809 152.25L522.009 155.6C523.175 156.267 524.659 156.6 526.459 156.6C529.492 156.6 531.009 155.567 531.009 153.5C531.009 152.667 530.742 152 530.209 151.5C529.675 151 528.809 150.55 527.609 150.15L523.009 148.65C521.642 148.183 520.592 147.417 519.859 146.35C519.125 145.283 518.759 144.083 518.759 142.75C518.759 140.65 519.592 139.017 521.259 137.85C522.925 136.683 524.859 136.1 527.059 136.1C528.392 136.1 529.642 136.367 530.809 136.9C532.442 137.6 533.542 138.383 534.109 139.25L531.359 143.15L530.159 142.8L529.759 139.3Z" fill="#C8A96A"/>
<path d="M394.376 33.3286C393.959 32.8363 393.883 31.7379 394.035 30.7154H417.137C417.668 30.7154 418.274 32.1924 418.008 32.6469C417.743 33.1014 416.872 33.2908 416.039 33.518C412.403 34.5784 409.525 37.5326 407.972 41.1305L402.556 58.4008L396.989 77.4132L386.952 111.992C386.763 112.598 385.854 113.355 385.362 113.355L378.734 113.241L373.621 98.4708L357.866 52.9849L353.662 66.2405L346.163 90.4795L339.043 113.241L330.938 113.166L316.281 64.915L313.213 55.8633C311.168 49.8035 307.04 45.4481 300.45 46.9251C292.837 48.6294 288.179 59.7642 284.884 66.7708L274.734 88.4343C270.189 96.6907 264.319 104.076 256.327 109C246.973 114.794 236.217 116.309 225.612 114.264C219.098 112.976 213.644 110.325 208.72 105.97C202.926 100.819 198.987 94.4562 196.98 86.8436C192.927 71.3156 194.783 52.5683 205.994 40.6382C215.045 31.0183 226.862 27.4582 239.928 29.1247C255.57 31.132 265.947 41.0927 266.061 56.9995C266.077 59.2719 265.72 60.1808 264.053 60.8625L247.73 67.6419L212.508 81.958L215.613 89.5705C221.257 99.5312 231.747 105.174 243.261 104.114C249.851 103.508 256.024 100.705 261.137 96.5013C266.25 92.2974 269.621 88.3586 272.272 83.1321L279.847 67.9827L286.285 53.9696C288.292 49.5763 290.906 45.6753 294.201 42.1531C297.496 38.6309 301.321 36.9645 305.638 36.0555C312.645 34.6163 319.311 37.2296 323.439 43.1378C326.166 47.0766 327.87 51.5836 329.233 56.3177L337.566 85.4802L339.914 92.6761L354.646 44.3498L358.737 30.829L365.554 30.5639L375.401 59.2719L378.734 68.8917L386.99 92.8655L396.193 61.6579L401.041 44.5013L401.799 40.6382C401.344 36.1691 399.337 33.7452 394.338 33.2907L394.376 33.3286ZM236.86 66.7329L244.624 62.5668C252.54 58.325 250.949 43.8574 242.693 36.8508C237.012 32.0409 228.377 32.2303 222.393 36.3206C216.409 40.4109 214.591 43.4408 212.773 48.4401C210.387 55.0679 209.402 62.1502 209.857 69.1189L211.031 77.1859L236.822 66.695L236.86 66.7329Z" fill="#C8A96A"/>
<path d="M455.654 104.189C468.569 104.871 478.454 98.3945 483.529 86.6917C484.513 86.4644 485.498 86.7295 486.521 87.3355C480.764 107.749 464.44 117.786 443.497 114.453C426.643 111.802 415.092 97.8643 412.705 81.2758C410.395 70.0274 412.1 58.0973 417.364 47.9473C419.939 42.948 423.537 39.2743 427.893 35.9793C433.081 32.0783 438.914 29.7681 445.428 29.0863L455.654 28.897C459.479 29.4272 463.153 30.071 466.599 31.586C477.507 36.4338 483.415 46.546 482.809 58.5139C482.809 60.1425 481.862 60.4076 481.067 60.7484L470.879 64.9903L439.747 77.6778L429.635 81.7681C432.475 94.1148 442.928 103.432 455.692 104.076L455.654 104.189ZM428.044 77.1476L445.201 70.3304L459.971 63.6268C464.403 61.6195 466.561 57.6807 466.561 52.8329C466.561 45.8264 463.645 38.8955 457.358 35.3354C448.382 30.2225 437.588 35.0703 432.097 43.6297C426.605 52.1891 425.658 63.3238 427.059 71.4287L428.044 77.1476Z" fill="#C8A96A"/>
<path d="M79.2689 85.5934L77.5646 94.683L74.2317 112.37L55.7117 112.483L0.416609 112.408C0.151496 111.764 0.0378733 110.855 0 109.984C3.06774 109.794 5.71887 108.961 7.49892 106.537C9.27897 104.113 9.69557 100.705 9.77132 97.5993L9.88494 91.8046V18.1031C9.88494 11.2859 7.3853 5.49131 0.378733 5.30194C0.151493 4.73384 0.0378722 3.63551 0.0757455 2.87804H31.5485L35.6767 2.72656C38.2142 6.55177 30.9425 4.39298 28.2914 8.36968C25.6402 12.3464 25.5266 14.2779 25.5266 17.7244V101.652L25.9054 107.408L31.5106 107.977L49.046 107.901C58.2113 107.901 66.2026 103.356 71.2776 95.6677C73.2849 92.6 74.6483 89.1914 76.0875 85.6692C76.8071 85.3283 78.1706 85.3662 79.231 85.6692L79.2689 85.5934Z" fill="#C8A96A"/>
<path d="M572.342 107.75C585.294 108.507 597.679 109.454 604.042 96.6906C604.383 96.0089 604.951 95.4029 605.481 95.3272C606.466 95.1757 607.185 96.0468 606.958 97.1072L603.701 112.446H551.208C552.61 106.613 553.594 102.069 553.594 96.6906V23.7087L553.405 18.7094C553.216 13.5208 552.723 8.82448 551.701 3.52222L560.98 1.1362L568.592 0V45.9403L568.668 65.6345V69.1946C568.706 69.1946 568.82 87.7146 568.82 87.7146V99.7205C568.82 103.394 568.289 107.485 572.342 107.712V107.75Z" fill="#C8A96A"/>
<path d="M540.945 112.446H492.884C494.437 107.371 495.156 102.258 495.497 96.8418L495.724 93.3196L495.838 25.2991C495.838 25.2991 495.838 21.7011 495.838 19.9968C495.838 18.2925 495.308 16.2852 495.308 16.2852C495.27 16.2852 493.452 3.55975 493.452 3.55975L508.336 0.113281C509.056 0.302648 509.889 0.605625 510.457 1.09798V104.53C510.457 106.537 512.199 107.901 513.903 107.901L526.629 107.787C533.56 106.878 538.9 102.258 541.74 96.1601C542.081 95.4026 543.596 95.3268 544.543 95.7435L540.983 112.483L540.945 112.446Z" fill="#C8A96A"/>
<path d="M174.862 30.677H199.593C200.161 31.0937 200.35 32.6086 200.01 33.2146C192.965 34.1614 189.102 41.3573 186.64 47.8337L175.506 77.1476L166.946 99.5686L161.644 113.468L153.728 113.279L149.903 103.621L135.473 67.3384L125.248 42.0769C121.688 33.2146 116.234 34.1235 114.832 32.9494C113.431 31.7754 114.757 30.7907 115.249 30.7907H142.707C142.707 30.7528 147.555 30.6392 147.555 30.6392C148.009 31.3209 148.009 32.9873 147.441 33.3282C145.32 33.5933 142.707 34.1993 141.798 36.3202C140.889 38.4411 141.344 40.7514 142.063 42.6829L145.889 53.0223L156.948 81.2758L162.78 95.8949L171.567 73.0573L179.141 52.5678C180.997 47.5307 184.216 39.3122 181.338 36.0551C179.558 34.0478 177.248 33.5176 174.597 33.2146C174.445 32.5707 174.483 31.586 174.824 30.7528L174.862 30.677Z" fill="#C8A96A"/>
<path d="M115.703 112.294L104.947 112.446H83.3214C82.9427 112.181 82.9048 110.855 83.17 110.438C83.4351 110.022 84.4198 109.832 85.1394 109.719C89.1918 108.961 91.4642 105.174 91.5021 101.008L91.5778 48.7048C91.5778 36.7369 83.2078 40.0697 83.0563 37.4186C83.0185 36.699 83.5866 36.093 84.344 35.8658L97.2588 31.6997L105.477 29.6924C106.045 29.5409 106.992 30.6393 106.992 31.2452V50.5985L106.954 53.2496L106.841 81.5789L106.538 86.5782L106.803 91.1608L107.144 101.917C107.295 107.106 110.401 109.605 115.627 109.984L115.703 112.294Z" fill="#C8A96A"/>
<path d="M104.568 17.914C101.311 20.2242 96.5393 20.3757 93.2443 18.0276C89.9493 15.6794 88.245 10.2257 90.025 6.13537C91.8051 2.04505 94.5698 1.36331 97.3725 0.908834C100.895 0.340734 104.152 1.51481 106.424 4.12807C108.697 6.74133 109.378 14.5432 104.606 17.914H104.568Z" fill="#C8A96A"/>
<path d="M289.101 77.1006L299 81.6526L308.9 77.1006L304.348 87.0001L308.9 96.8996L299 92.3476L289.101 96.8996L293.653 87.0001L289.101 77.1006Z" fill="#C8A96A"/>
</g>
<defs>
<clipPath id="clip0_326_690">
<rect width="607" height="171" fill="white"/>
</clipPath>
</defs>
</svg>
